<svg width="18" height="18" viewBox="0 0 18 18" fill="none" xmlns="http://www.w3.org/2000/svg">
<path d="M12.4375 0.980469H13.125H17.25H17.9375V1.66797V16.793V17.4805H17.25H13.125H12.4375V16.793V1.66797V0.980469ZM13.8125 2.35547V16.1055H16.5625V2.35547H13.8125ZM0.0625 5.10547H0.75H4.875H5.5625V5.79297V16.793V17.4805H4.875H0.75H0.0625V16.793V5.79297V5.10547ZM1.4375 6.48047V16.1055H4.1875V6.48047H1.4375ZM6.25 9.23047H6.9375H11.0625H11.75V9.91797V16.793V17.4805H11.0625H6.9375H6.25V16.793V9.91797V9.23047ZM7.625 10.6055V16.1055H10.375V10.6055H7.625Z" fill="#202224"/>
</svg>
