<svg width="18" height="18" viewBox="0 0 18 18" fill="none" xmlns="http://www.w3.org/2000/svg">
<path d="M3.15625 3.05957C4.78906 1.42676 6.73698 0.610352 9 0.610352C11.263 0.610352 13.1966 1.42676 14.8008 3.05957C16.4336 4.66374 17.25 6.59733 17.25 8.86035C17.25 11.1234 16.4336 13.0713 14.8008 14.7041C13.1966 16.3083 11.263 17.1104 9 17.1104C6.73698 17.1104 4.78906 16.3083 3.15625 14.7041C1.55208 13.0713 0.75 11.1234 0.75 8.86035C0.75 6.59733 1.55208 4.66374 3.15625 3.05957ZM13.8555 4.00488C12.5091 2.65853 10.8906 1.98535 9 1.98535C7.10938 1.98535 5.49089 2.65853 4.14453 4.00488C2.79818 5.35124 2.125 6.96973 2.125 8.86035C2.125 10.751 2.79818 12.3695 4.14453 13.7158C5.49089 15.0622 7.10938 15.7354 9 15.7354C10.8906 15.7354 12.5091 15.0622 13.8555 13.7158C15.2018 12.3695 15.875 10.751 15.875 8.86035C15.875 6.96973 15.2018 5.35124 13.8555 4.00488ZM8.48438 2.8877C8.6276 2.74447 8.79948 2.67285 9 2.67285C9.20052 2.67285 9.35807 2.74447 9.47266 2.8877C9.61589 3.00228 9.6875 3.15983 9.6875 3.36035C9.6875 3.56087 9.61589 3.73275 9.47266 3.87598C9.35807 3.99056 9.20052 4.04785 9 4.04785C8.79948 4.04785 8.6276 3.99056 8.48438 3.87598C8.36979 3.73275 8.3125 3.56087 8.3125 3.36035C8.3125 3.15983 8.36979 3.00228 8.48438 2.8877ZM4.61719 4.52051C4.76042 4.37728 4.91797 4.30566 5.08984 4.30566C5.29036 4.30566 5.46224 4.37728 5.60547 4.52051C5.7487 4.63509 5.82031 4.79264 5.82031 4.99316C5.82031 5.16504 5.7487 5.32259 5.60547 5.46582C5.46224 5.60905 5.29036 5.68066 5.08984 5.68066C4.91797 5.68066 4.76042 5.60905 4.61719 5.46582C4.5026 5.32259 4.44531 5.16504 4.44531 4.99316C4.44531 4.79264 4.5026 4.63509 4.61719 4.52051ZM12.3945 4.47754L13.3828 5.46582L10.332 8.5166C10.3607 8.63118 10.375 8.74577 10.375 8.86035C10.375 9.23275 10.2318 9.56217 9.94531 9.84863C9.6875 10.1064 9.3724 10.2354 9 10.2354C8.6276 10.2354 8.29818 10.1064 8.01172 9.84863C7.75391 9.56217 7.625 9.23275 7.625 8.86035C7.625 8.48796 7.75391 8.17285 8.01172 7.91504C8.29818 7.62858 8.6276 7.48535 9 7.48535C9.11458 7.48535 9.22917 7.49967 9.34375 7.52832L12.3945 4.47754ZM2.98438 8.3877C3.1276 8.24447 3.29948 8.17285 3.5 8.17285C3.70052 8.17285 3.85807 8.24447 3.97266 8.3877C4.11589 8.50228 4.1875 8.65983 4.1875 8.86035C4.1875 9.06087 4.11589 9.23275 3.97266 9.37598C3.85807 9.49056 3.70052 9.54785 3.5 9.54785C3.29948 9.54785 3.1276 9.49056 2.98438 9.37598C2.86979 9.23275 2.8125 9.06087 2.8125 8.86035C2.8125 8.65983 2.86979 8.50228 2.98438 8.3877ZM13.9844 8.3877C14.1276 8.24447 14.2995 8.17285 14.5 8.17285C14.7005 8.17285 14.8581 8.24447 14.9727 8.3877C15.1159 8.50228 15.1875 8.65983 15.1875 8.86035C15.1875 9.06087 15.1159 9.23275 14.9727 9.37598C14.8581 9.49056 14.7005 9.54785 14.5 9.54785C14.2995 9.54785 14.1276 9.49056 13.9844 9.37598C13.8698 9.23275 13.8125 9.06087 13.8125 8.86035C13.8125 8.65983 13.8698 8.50228 13.9844 8.3877ZM4.61719 12.2549C4.76042 12.1117 4.91797 12.04 5.08984 12.04C5.29036 12.04 5.46224 12.1117 5.60547 12.2549C5.7487 12.3981 5.82031 12.57 5.82031 12.7705C5.82031 12.9424 5.7487 13.0999 5.60547 13.2432C5.46224 13.3577 5.29036 13.415 5.08984 13.415C4.91797 13.415 4.76042 13.3577 4.61719 13.2432C4.5026 13.0999 4.44531 12.9424 4.44531 12.7705C4.44531 12.57 4.5026 12.3981 4.61719 12.2549ZM12.3945 12.2549C12.5378 12.1117 12.6953 12.04 12.8672 12.04C13.0677 12.04 13.2253 12.1117 13.3398 12.2549C13.4831 12.3981 13.5547 12.57 13.5547 12.7705C13.5547 12.9424 13.4831 13.0999 13.3398 13.2432C13.2253 13.3577 13.0677 13.415 12.8672 13.415C12.6953 13.415 12.5378 13.3577 12.3945 13.2432C12.2513 13.0999 12.1797 12.9424 12.1797 12.7705C12.1797 12.57 12.2513 12.3981 12.3945 12.2549Z" fill="black"/>
</svg>
