<svg width="18" height="18" viewBox="0 0 18 18" fill="none" xmlns="http://www.w3.org/2000/svg">
<path d="M8.3125 0.83252H9.6875V9.08252H8.3125V0.83252ZM6.25 1.30518V2.80908C5.01823 3.32471 4.01562 4.15544 3.24219 5.30127C2.4974 6.4471 2.125 7.70752 2.125 9.08252C2.125 10.9731 2.79818 12.5916 4.14453 13.938C5.49089 15.2843 7.10938 15.9575 9 15.9575C10.8906 15.9575 12.5091 15.2843 13.8555 13.938C15.2018 12.5916 15.875 10.9731 15.875 9.08252C15.875 7.70752 15.4883 6.4471 14.7148 5.30127C13.9701 4.15544 12.9818 3.32471 11.75 2.80908V1.30518C13.3828 1.87809 14.7005 2.8807 15.7031 4.31299C16.7344 5.71663 17.25 7.30648 17.25 9.08252C17.25 11.3455 16.4336 13.2935 14.8008 14.9263C13.1966 16.5304 11.263 17.3325 9 17.3325C6.73698 17.3325 4.78906 16.5304 3.15625 14.9263C1.55208 13.2935 0.75 11.3455 0.75 9.08252C0.75 7.30648 1.2513 5.71663 2.25391 4.31299C3.28516 2.8807 4.61719 1.87809 6.25 1.30518Z" fill="#202224"/>
</svg>
