<svg width="18" height="17" viewBox="0 0 18 17" fill="none" xmlns="http://www.w3.org/2000/svg">
<path d="M6.25 0.890137C7.16667 0.890137 8.02604 1.44873 8.82812 2.56592C8.82812 2.59456 8.88542 2.69482 9 2.8667C9.11458 2.69482 9.17188 2.59456 9.17188 2.56592C9.97396 1.44873 10.8333 0.890137 11.75 0.890137C12.3229 0.890137 12.8099 1.09066 13.2109 1.4917C13.612 1.89274 13.8125 2.37972 13.8125 2.95264C13.8125 3.1818 13.7695 3.41097 13.6836 3.64014H16.5625H17.25V4.32764V7.07764V7.76514H16.5625V16.0151V16.7026H15.875H2.125H1.4375V16.0151V7.76514H0.75V7.07764V4.32764V3.64014H1.4375H4.31641C4.23047 3.41097 4.1875 3.1818 4.1875 2.95264C4.1875 2.37972 4.38802 1.89274 4.78906 1.4917C5.1901 1.09066 5.67708 0.890137 6.25 0.890137ZM6.25 2.26514C5.79167 2.26514 5.5625 2.4943 5.5625 2.95264C5.5625 3.41097 5.79167 3.64014 6.25 3.64014H7.83984C7.8112 3.61149 7.78255 3.56852 7.75391 3.51123C7.72526 3.45394 7.69661 3.39665 7.66797 3.33936C7.15234 2.62321 6.67969 2.26514 6.25 2.26514ZM11.75 2.26514C11.3203 2.26514 10.8477 2.62321 10.332 3.33936C10.3034 3.39665 10.2747 3.43962 10.2461 3.46826C10.2461 3.46826 10.2318 3.49691 10.2031 3.5542C10.2031 3.58285 10.1888 3.61149 10.1602 3.64014H11.75C12.2083 3.64014 12.4375 3.41097 12.4375 2.95264C12.4375 2.4943 12.2083 2.26514 11.75 2.26514ZM2.125 5.01514V6.39014H8.3125V5.70264H9.6875V6.39014H15.875V5.01514H9H7.96875H2.125ZM2.8125 7.76514V15.3276H8.3125V8.45264H9.6875V15.3276H15.1875V7.76514H2.8125Z" fill="#202224"/>
</svg>
