<svg width="15" height="16" viewBox="0 0 15 16" fill="none" xmlns="http://www.w3.org/2000/svg">
<path d="M3.91797 1.90088C4.86328 0.955566 5.99479 0.48291 7.3125 0.48291C8.63021 0.48291 9.76172 0.955566 10.707 1.90088C11.6523 2.84619 12.125 3.9777 12.125 5.29541C12.125 6.09749 11.9245 6.85661 11.5234 7.57275C11.151 8.2889 10.6354 8.86182 9.97656 9.2915C11.237 9.83577 12.2539 10.6808 13.0273 11.8267C13.8008 12.9438 14.1875 14.2043 14.1875 15.6079H12.8125C12.8125 14.0897 12.2682 12.8006 11.1797 11.7407C10.1198 10.6522 8.83073 10.1079 7.3125 10.1079C5.79427 10.1079 4.49089 10.6522 3.40234 11.7407C2.34245 12.8006 1.8125 14.0897 1.8125 15.6079H0.4375C0.4375 14.2043 0.824219 12.9438 1.59766 11.8267C2.37109 10.6808 3.38802 9.83577 4.64844 9.2915C3.98958 8.86182 3.45964 8.2889 3.05859 7.57275C2.6862 6.85661 2.5 6.09749 2.5 5.29541C2.5 3.9777 2.97266 2.84619 3.91797 1.90088ZM9.71875 2.88916C9.0599 2.20166 8.25781 1.85791 7.3125 1.85791C6.36719 1.85791 5.55078 2.20166 4.86328 2.88916C4.20443 3.54801 3.875 4.3501 3.875 5.29541C3.875 6.24072 4.20443 7.05713 4.86328 7.74463C5.55078 8.40348 6.36719 8.73291 7.3125 8.73291C8.25781 8.73291 9.0599 8.40348 9.71875 7.74463C10.4062 7.05713 10.75 6.24072 10.75 5.29541C10.75 4.3501 10.4062 3.54801 9.71875 2.88916Z" fill="#202224"/>
</svg>
