<svg width="21" height="13" viewBox="0 0 21 13" fill="none" xmlns="http://www.w3.org/2000/svg">
<path d="M2.57812 1.65332C3.38021 0.851237 4.35417 0.450195 5.5 0.450195C6.64583 0.450195 7.61979 0.851237 8.42188 1.65332C9.22396 2.4554 9.625 3.42936 9.625 4.5752C9.625 5.97884 9.05208 7.09603 7.90625 7.92676C8.96615 8.44238 9.76823 9.18717 10.3125 10.1611C10.8568 9.18717 11.6589 8.44238 12.7188 7.92676C11.5729 7.09603 11 5.97884 11 4.5752C11 3.42936 11.401 2.4554 12.2031 1.65332C13.0052 0.851237 13.9792 0.450195 15.125 0.450195C16.2708 0.450195 17.2448 0.851237 18.0469 1.65332C18.849 2.4554 19.25 3.42936 19.25 4.5752C19.25 5.97884 18.6771 7.09603 17.5312 7.92676C18.4766 8.38509 19.2214 9.05827 19.7656 9.94629C20.3385 10.8057 20.625 11.7653 20.625 12.8252H19.25C19.25 11.6794 18.849 10.7054 18.0469 9.90332C17.2448 9.10124 16.2708 8.7002 15.125 8.7002C13.9792 8.7002 13.0052 9.10124 12.2031 9.90332C11.401 10.7054 11 11.6794 11 12.8252H9.625C9.625 11.6794 9.22396 10.7054 8.42188 9.90332C7.61979 9.10124 6.64583 8.7002 5.5 8.7002C4.35417 8.7002 3.38021 9.10124 2.57812 9.90332C1.77604 10.7054 1.375 11.6794 1.375 12.8252H0C0 11.7653 0.272135 10.8057 0.816406 9.94629C1.38932 9.05827 2.14844 8.38509 3.09375 7.92676C1.94792 7.09603 1.375 5.97884 1.375 4.5752C1.375 3.42936 1.77604 2.4554 2.57812 1.65332ZM7.43359 2.6416C6.91797 2.09733 6.27344 1.8252 5.5 1.8252C4.72656 1.8252 4.06771 2.09733 3.52344 2.6416C3.00781 3.15723 2.75 3.80176 2.75 4.5752C2.75 5.34863 3.00781 6.00749 3.52344 6.55176C4.06771 7.06738 4.72656 7.3252 5.5 7.3252C6.27344 7.3252 6.91797 7.06738 7.43359 6.55176C7.97786 6.00749 8.25 5.34863 8.25 4.5752C8.25 3.80176 7.97786 3.15723 7.43359 2.6416ZM17.0586 2.6416C16.543 2.09733 15.8984 1.8252 15.125 1.8252C14.3516 1.8252 13.6927 2.09733 13.1484 2.6416C12.6328 3.15723 12.375 3.80176 12.375 4.5752C12.375 5.34863 12.6328 6.00749 13.1484 6.55176C13.6927 7.06738 14.3516 7.3252 15.125 7.3252C15.8984 7.3252 16.543 7.06738 17.0586 6.55176C17.6029 6.00749 17.875 5.34863 17.875 4.5752C17.875 3.80176 17.6029 3.15723 17.0586 2.6416Z" fill="#202224"/>
</svg>
