<svg width="1603" height="1433" viewBox="0 0 1603 1433" fill="none" xmlns="http://www.w3.org/2000/svg">
<g clip-path="url(#clip0_641_555)">
<path d="M230.254 740.471C219.564 740.471 227.244 738.854 94.6902 547.426C-37.8634 355.998 -17.4712 355.998 71.3434 177.191C160.158 -1.61638 164.194 0.000510223 164.194 0.000510223H786.193C1401.66 0.000510223 1409.13 1.17658 1499.03 112.465C1661.97 314.221 1652.98 356.08 1330.59 896.884L1021.36 1415.61L820.587 1428.67C623.258 1441.52 617.712 1438.21 502.23 1236.93C437.557 1124.3 390.013 1029.17 396.499 1025.55C403.029 1021.94 465.466 984.173 535.237 941.574C605.01 899.019 667.044 870.663 673.037 878.547C679.075 886.474 712.664 934.518 747.684 985.392L803.31 1072.83L1021.41 734.939L1231.48 392.014H806.186H392.298L449.185 486.925C513.456 576.304 509.654 586.497 383.573 661.153C309.91 704.798 240.943 740.471 230.254 740.471Z" fill="#568AFF"/>
<path d="M230.254 740.471C219.564 740.471 227.244 738.854 94.6902 547.426C-37.8634 355.998 -17.4712 355.998 71.3434 177.191C160.158 -1.61638 164.194 0.000510227 164.194 0.000510227L392.298 392.014L449.185 486.925C513.456 576.304 509.654 586.497 383.573 661.153C309.91 704.798 240.943 740.471 230.254 740.471Z" fill="#7CA4FF"/>
<path d="M673.038 878.558C679.076 886.486 712.665 934.529 747.685 985.404L803.311 1072.85L1021.36 1415.62L820.588 1428.68C623.258 1441.53 617.712 1438.22 502.231 1236.95C437.557 1124.31 390.014 1029.18 396.499 1025.56C403.029 1021.95 465.466 984.184 535.238 941.586C605.01 899.03 667.045 870.675 673.038 878.558Z" fill="#7CA4FF"/>
</g>
<defs>
<clipPath id="clip0_641_555">
<rect width="1603" height="1433" fill="white"/>
</clipPath>
</defs>
</svg>
